<?xml version="1.0" encoding="UTF-8"?>
<!DOCTYPE svg PUBLIC "-//W3C//DTD SVG 1.1//EN" "http://www.w3.org/Graphics/SVG/1.1/DTD/svg11.dtd">
<!-- Creator: CorelDRAW X6 -->
<svg xmlns="http://www.w3.org/2000/svg" xml:space="preserve" width="297mm" height="210mm" version="1.1" style="shape-rendering:geometricPrecision; text-rendering:geometricPrecision; image-rendering:optimizeQuality; fill-rule:evenodd; clip-rule:evenodd"
viewBox="0 0 29700 21000"
 xmlns:xlink="http://www.w3.org/1999/xlink">
 <defs>
  <style type="text/css">
   <![CDATA[
    .str1 {stroke:#2B2A29;stroke-width:70.6}
    .str2 {stroke:black;stroke-width:70.6}
    .str0 {stroke:#2B2A29;stroke-width:564.4}
    .fil0 {fill:none}
    .fil1 {fill:#2B2A29}
    .fil2 {fill:#FEFEFE}
    .fil3 {fill:black}
   ]]>
  </style>
 </defs>
 <g id="Umriß">
  <metadata id="CorelCorpID_0Corel-Layer"/>
  <g id="_728802880">
   <g>
    <rect class="fil0" x="9006" y="3497" width="11736" height="4179"/>
    <path class="fil0 str0" d="M9008 5560l11707 0m-6028 -2036l0 4179"/>
   </g>
   <g>
    <path class="fil0 str1" d="M14523 12574l446 0 0 4459 -446 0 0 -4459zm-30 1l506 0 0 -355 -506 0 0 355z"/>
    <path class="fil0 str1" d="M14746 9116c809,0 1469,690 1469,1536 0,846 -660,1576 -1469,1576 -809,0 -1469,-730 -1469,-1576 0,-846 660,-1536 1469,-1536z"/>
    <path class="fil1" d="M14746 9136c635,0 1153,695 1153,1546 0,852 -518,1547 -1153,1547 -635,0 -1153,-695 -1153,-1547 0,-851 518,-1546 1153,-1546z"/>
    <path class="fil2" d="M14746 9152c74,0 336,688 336,1532 0,844 -221,1532 -336,1532 -115,0 -336,-688 -336,-1532 0,-844 262,-1532 336,-1532z"/>
    <g>
     <path class="fil2" d="M14184 9918c65,0 118,52 118,117 0,65 -53,117 -118,117 -65,0 -117,-52 -117,-117 0,-65 52,-117 117,-117z"/>
     <path class="fil2" d="M15331 9918c64,0 117,52 117,117 0,65 -53,117 -117,117 -65,0 -118,-52 -118,-117 0,-65 53,-117 118,-117z"/>
     <path class="fil2" d="M14184 11192c65,0 118,52 118,117 0,65 -53,118 -118,118 -65,0 -117,-53 -117,-118 0,-65 52,-117 117,-117z"/>
     <path class="fil2" d="M15331 11192c64,0 117,52 117,117 0,65 -53,118 -117,118 -65,0 -118,-53 -118,-118 0,-65 53,-117 118,-117z"/>
     <path class="fil2" d="M14029 10495c90,0 164,74 164,163 0,90 -74,164 -164,164 -90,0 -163,-74 -163,-164 0,-89 73,-163 163,-163z"/>
     <path class="fil2" d="M15463 10495c90,0 163,74 163,163 0,90 -73,164 -163,164 -90,0 -164,-74 -164,-164 0,-89 74,-163 164,-163z"/>
    </g>
    <path class="fil2 str1" d="M14999 8816l-506 0 0 324 506 0 0 -324zm-450 -347l394 0 0 347 -394 0 0 -347z"/>
   </g>
   <g>
    <path class="fil0 str2" d="M14746 17790c-2964,25 -6025,-2764 -6010,-5817l-5 -8755 12238 -8 -5 8740c-21,3259 -3251,5814 -6218,5840z"/>
    <path class="fil0 str2" d="M14776 17536c-2712,18 -5743,-2665 -5745,-5545l-13 -8491 11730 7 -18 8441c-5,2918 -3241,5573 -5954,5588z"/>
   </g>
   <g>
    <path class="fil3" d="M11256 10472l-52 51c-652,-81 -1125,-441 -1382,-1136l64 -56c316,486 781,860 1370,1141zm-1319 -1179l77 -84 1349 1163 -56 61c-577,-314 -1053,-675 -1370,-1140zm3010 2306c46,-508 -490,-1148 -1235,-1284l-104 -149c-186,-749 -594,-1205 -1326,-1231 -114,0 -241,-67 -355,-85 -40,-73 -157,-195 -239,-195 -34,69 -27,56 -99,66 -3,26 -10,103 -96,103 16,158 114,196 202,295 30,104 60,208 90,313 192,665 674,1031 1385,1137l141 119c423,821 -2939,1728 105,5311 147,-1877 794,-3099 1457,-4088l4554 4111 222 -222 -4702 -4201zm-1532 4393c-2003,-3174 801,-4457 7,-5395l-66 64c488,1075 -2777,1337 59,5331zm105 -5477l-59 61c891,984 -1783,1795 -47,5416 -1081,-2635 1084,-4645 106,-5477zm-1484 -1339l80 -79c579,174 1023,579 1356,1176l-73 61 -1363 -1158zm199 -192l-71 76c587,104 1020,533 1348,1183l66 -57c-249,-759 -670,-1207 -1343,-1202zm1444 1372l-61 55c1907,1094 -418,2052 -205,5579 -50,-3810 2928,-4495 266,-5634zm-100 105l-27 29c1037,887 -975,2628 -136,5498 -580,-2819 1914,-4652 163,-5527z"/>
    <path class="fil3" d="M18236 10472l52 51c652,-81 1125,-441 1382,-1136l-64 -56c-316,486 -781,860 -1370,1141zm1319 -1179l-77 -84 -1349 1163 56 61c577,-314 1053,-675 1370,-1140zm-3010 2306c-46,-508 490,-1148 1235,-1284l104 -149c186,-749 594,-1205 1326,-1231 114,0 241,-67 355,-85 40,-73 157,-195 239,-195 34,69 27,56 99,66 3,26 10,103 96,103 -16,158 -114,196 -202,295 -30,104 -60,208 -90,313 -192,665 -674,1031 -1385,1137l-141 119c-423,821 2939,1728 -105,5311 -147,-1877 -794,-3099 -1457,-4088l-4554 4111 -222 -222 4702 -4201zm1532 4393c2003,-3174 -801,-4457 -7,-5395l66 64c-488,1075 2777,1337 -59,5331zm-105 -5477l59 61c-891,984 1783,1795 47,5416 1081,-2635 -1084,-4645 -106,-5477zm1484 -1339l-80 -79c-579,174 -1023,579 -1356,1176l73 61 1363 -1158zm-199 -192l71 76c-587,104 -1020,533 -1348,1183l-66 -57c249,-759 670,-1207 1343,-1202zm-1444 1372l61 55c-1907,1094 418,2052 205,5579 50,-3810 -2928,-4495 -266,-5634zm100 105l27 29c-1037,887 975,2628 136,5498 580,-2819 -1914,-4652 -163,-5527z"/>
   </g>
  </g>
 </g>
</svg>
