<?xml version="1.0" encoding="UTF-8"?>
<!DOCTYPE svg PUBLIC "-//W3C//DTD SVG 1.1//EN" "http://www.w3.org/Graphics/SVG/1.1/DTD/svg11.dtd">
<!-- Creator: CorelDRAW X6 -->
<svg xmlns="http://www.w3.org/2000/svg" xml:space="preserve" width="297mm" height="210mm" version="1.1" style="shape-rendering:geometricPrecision; text-rendering:geometricPrecision; image-rendering:optimizeQuality; fill-rule:evenodd; clip-rule:evenodd"
viewBox="0 0 29700 21000"
 xmlns:xlink="http://www.w3.org/1999/xlink">
 <defs>
  <style type="text/css">
   <![CDATA[
    .fil0 {fill:#2B2A29}
    .fil2 {fill:#E31E24}
    .fil3 {fill:#FEFEFE}
    .fil5 {fill:black}
    .fil4 {fill:#2B2A29;fill-rule:nonzero}
    .fil1 {fill:black;fill-rule:nonzero}
   ]]>
  </style>
 </defs>
 <g id="Ebene_x0020_1">
  <metadata id="CorelCorpID_0Corel-Layer"/>
  <g id="_728803456">
   <g>
    <g>
     <path class="fil0" d="M14722 19750c-3633,32 -7384,-3507 -7366,-7381l-6 -11109 15000 -10 -6 11090c-25,4135 -3985,7378 -7622,7410z"/>
     <path id="1" class="fil1" d="M7318 12369l76 0 0 1 9 359 31 358 50 354 71 351 90 346 109 342 126 336 143 330 159 323 175 317 190 308 205 300 217 291 231 281 242 272 254 260 265 249 275 237 283 224 293 212 300 197 307 183 313 168 320 153 324 137 328 119 332 103 334 85 337 66 338 47 338 27 339 8 1 74 -343 -7 -344 -28 -342 -48 -340 -66 -339 -86 -335 -104 -332 -121 -328 -138 -322 -154 -317 -170 -310 -185 -303 -199 -294 -213 -287 -227 -277 -239 -267 -251 -256 -263 -245 -273 -232 -284 -220 -294 -206 -303 -192 -311 -177 -319 -161 -327 -145 -333 -127 -340 -110 -345 -91 -351 -71 -354 -52 -359 -30 -362 -10 -364 0 0zm76 0l0 1 0 0 0 -1zm-6 -11109l6 11109 -76 0 -6 -11109 38 -38 38 38zm-76 0l0 -38 38 0 -38 38zm15038 27l-15000 10 0 -75 15000 -9 38 37 -38 37zm0 -74l38 0 0 37 -38 -37zm-44 11127l6 -11090 76 0 -6 11090 0 1 -76 -1zm76 0l0 1 0 0 0 -1zm-7659 7447l-1 -74 0 0 340 -13 341 -30 341 -49 341 -66 339 -83 338 -99 335 -116 332 -131 327 -147 322 -162 317 -176 310 -191 302 -204 294 -217 285 -230 276 -243 264 -254 254 -266 241 -277 229 -288 215 -298 200 -308 185 -317 170 -326 152 -335 135 -343 117 -350 98 -358 77 -365 57 -371 36 -377 14 -383 76 1 -14 387 -36 381 -58 376 -79 368 -99 362 -118 355 -136 346 -154 338 -171 330 -187 320 -203 311 -217 301 -230 290 -244 280 -256 268 -267 257 -278 245 -287 232 -297 219 -305 206 -313 192 -319 178 -325 163 -330 149 -335 132 -338 117 -342 101 -343 84 -345 66 -345 49 -345 31 -343 12 0 0z"/>
    </g>
    <g>
     <path class="fil2" d="M14760 19428c-3325,22 -7040,-3381 -7043,-7036l-15 -10775 14377 10 -22 10710c-6,3703 -3972,7071 -7297,7091z"/>
     <path id="1" class="fil1" d="M7680 12392l75 0 0 0 11 339 32 338 52 335 71 332 90 328 108 324 125 319 142 313 157 308 172 301 186 293 200 286 212 278 225 268 235 259 246 249 256 238 265 227 272 215 281 202 287 190 293 176 298 161 302 147 306 131 309 116 311 99 312 81 313 64 313 46 312 27 310 8 1 75 -315 -8 -317 -27 -317 -47 -317 -65 -316 -83 -315 -100 -312 -116 -310 -133 -305 -148 -301 -164 -296 -177 -290 -191 -282 -204 -276 -217 -267 -229 -258 -240 -248 -251 -238 -262 -226 -271 -214 -280 -202 -288 -188 -297 -174 -304 -159 -311 -143 -316 -126 -323 -109 -328 -91 -332 -72 -336 -53 -339 -32 -342 -11 -344 0 0zm60 -10775l15 10775 -75 0 -16 -10775 38 -37 38 37zm-76 0l0 -37 38 0 -38 37zm14415 48l-14377 -10 0 -75 14377 10 38 37 -38 38zm0 -75l38 0 0 37 -38 -37zm-59 10747l21 -10710 76 0 -22 10710 -75 0 0 0zm-7260 7128l-1 -75 0 0 312 -11 314 -31 316 -48 318 -67 318 -84 318 -101 317 -117 314 -133 312 -148 308 -162 303 -177 298 -190 292 -203 284 -215 277 -228 267 -238 258 -250 247 -259 236 -270 224 -278 211 -287 197 -294 182 -302 166 -309 150 -315 133 -321 115 -326 96 -331 76 -335 55 -338 35 -341 12 -344 75 0 -12 349 -35 346 -56 342 -77 340 -97 334 -116 330 -134 325 -152 318 -168 313 -184 305 -199 297 -213 290 -225 280 -238 272 -250 262 -260 251 -270 241 -279 229 -286 217 -295 205 -300 192 -306 178 -311 164 -315 150 -317 134 -320 118 -322 102 -322 85 -321 67 -321 50 -318 31 -316 11 0 0z"/>
    </g>
   </g>
   <g>
    <rect class="fil3" x="7747" y="1631" width="14332" height="5095"/>
    <g>
     <path class="fil4" d="M22094 4410l-14371 0 0 -599 14371 0 0 599zm-7516 2348l0 -5146 605 0 0 5146 -605 0z"/>
    </g>
   </g>
   <g>
    <g>
     <path class="fil3" d="M14449 13028l547 0 0 5436 -547 0 0 -5436zm-36 2l619 0 0 -433 -619 0 0 433z"/>
     <path id="1" class="fil4" d="M14996 13057l-547 0 0 -58 547 0 29 29 -29 29zm0 -58l29 0 0 29 -29 -29zm-29 5465l0 -5436 58 0 0 5436 -29 29 -29 -29zm58 0l0 29 -29 0 29 -29zm-576 -29l547 0 0 58 -547 0 -29 -29 29 -29zm0 58l-29 0 0 -29 29 29zm29 -5465l0 5436 -58 0 0 -5436 29 -29 29 29zm-58 0l0 -29 29 0 -29 29zm612 31l-619 0 0 -58 619 0 29 29 -29 29zm29 -29l0 29 -29 0 29 -29zm0 -433l0 433 -58 0 0 -433 29 -29 29 29zm-29 -29l29 0 0 29 -29 -29zm-619 0l619 0 0 57 -619 0 -29 -28 29 -29zm-29 29l0 -29 29 0 -29 29zm0 433l0 -433 58 0 0 433 -29 29 -29 -29zm29 29l-29 0 0 -29 29 29z"/>
    </g>
    <g>
     <path class="fil3" d="M14723 8813c991,0 1800,841 1800,1873 0,1031 -809,1920 -1800,1920 -992,0 -1801,-889 -1801,-1920 0,-1032 809,-1873 1801,-1873z"/>
     <path id="1" class="fil4" d="M16552 10686l-58 0 0 0 -2 -95 -7 -94 -11 -92 -16 -90 -20 -90 -24 -87 -28 -86 -32 -83 -35 -82 -40 -79 -42 -78 -47 -75 -49 -72 -53 -70 -56 -67 -58 -64 -62 -61 -64 -58 -67 -55 -70 -51 -72 -48 -74 -44 -76 -41 -79 -37 -80 -33 -82 -29 -84 -25 -85 -21 -87 -16 -89 -12 -90 -7 -90 -2 0 -58 93 3 93 7 92 12 90 17 88 22 87 25 85 30 83 34 81 39 79 42 77 46 74 49 72 53 69 57 66 60 64 63 60 66 58 69 54 72 51 74 48 78 44 79 40 82 37 84 33 86 29 89 24 90 21 92 16 93 12 95 7 96 2 98 0 0zm-1829 1949l0 -57 0 0 90 -3 90 -7 88 -13 87 -17 86 -22 84 -26 82 -30 80 -35 78 -38 77 -43 74 -46 72 -50 69 -54 67 -57 65 -60 61 -64 59 -66 56 -69 53 -72 49 -75 47 -77 42 -79 40 -81 35 -84 32 -85 28 -87 24 -89 20 -90 16 -92 11 -93 7 -93 2 -95 58 0 -2 97 -7 97 -12 95 -16 95 -21 93 -24 91 -29 90 -33 87 -37 86 -40 84 -44 82 -48 79 -51 77 -54 74 -57 71 -61 68 -64 65 -66 63 -69 58 -72 56 -74 51 -77 48 -78 44 -82 40 -83 36 -85 32 -86 27 -89 22 -90 18 -92 13 -92 7 -94 3 0 0zm-1830 -1949l58 0 0 0 2 95 7 93 11 93 16 92 20 90 24 89 28 87 32 85 35 84 40 81 43 79 46 77 49 75 53 72 56 69 59 66 61 64 65 60 67 57 69 54 72 50 74 46 77 43 78 38 80 35 83 30 83 26 86 22 87 17 88 13 90 7 91 3 0 57 -95 -3 -92 -7 -92 -13 -90 -18 -88 -22 -87 -27 -85 -32 -83 -36 -81 -40 -79 -44 -77 -48 -74 -51 -72 -56 -69 -58 -66 -63 -64 -65 -61 -68 -57 -71 -54 -74 -51 -77 -48 -79 -44 -82 -40 -84 -37 -86 -33 -87 -29 -90 -24 -91 -21 -93 -16 -95 -12 -95 -7 -97 -2 -97 0 0zm1830 -1902l0 58 0 0 -91 2 -90 7 -88 12 -87 16 -86 21 -84 25 -82 29 -80 33 -79 37 -76 41 -74 44 -72 48 -70 51 -67 55 -64 58 -62 61 -58 64 -56 67 -53 70 -49 72 -47 75 -42 78 -40 79 -35 82 -32 83 -28 86 -24 87 -20 90 -16 90 -11 92 -7 94 -2 95 -58 0 2 -98 8 -96 11 -95 16 -93 21 -92 24 -90 29 -89 33 -86 37 -84 40 -82 44 -79 48 -78 51 -74 54 -72 58 -69 60 -66 64 -63 66 -60 70 -57 71 -53 74 -49 77 -46 79 -42 81 -39 83 -34 85 -30 87 -25 88 -22 90 -17 92 -12 93 -7 94 -3 0 0z"/>
    </g>
    <path class="fil0" d="M14723 8838c778,0 1413,846 1413,1884 0,1039 -635,1885 -1413,1885 -779,0 -1414,-846 -1414,-1885 0,-1038 635,-1884 1414,-1884z"/>
    <path class="fil3" d="M14723 8856c91,0 411,840 411,1868 0,1029 -270,1868 -411,1868 -142,0 -412,-839 -412,-1868 0,-1028 320,-1868 412,-1868z"/>
    <g>
     <path class="fil3" d="M14034 9790c79,0 144,64 144,143 0,79 -65,143 -144,143 -80,0 -144,-64 -144,-143 0,-79 64,-143 144,-143z"/>
     <path class="fil3" d="M15439 9790c80,0 144,64 144,143 0,79 -64,143 -144,143 -79,0 -144,-64 -144,-143 0,-79 65,-143 144,-143z"/>
     <path class="fil3" d="M14034 11343c79,0 144,64 144,143 0,79 -65,144 -144,144 -80,0 -144,-65 -144,-144 0,-79 64,-143 144,-143z"/>
     <path class="fil3" d="M15439 11343c80,0 144,64 144,143 0,79 -64,144 -144,144 -79,0 -144,-65 -144,-144 0,-79 65,-143 144,-143z"/>
     <path class="fil3" d="M13844 10494c110,0 200,90 200,199 0,110 -90,199 -200,199 -110,0 -200,-89 -200,-199 0,-109 90,-199 200,-199z"/>
     <path class="fil3" d="M15601 10494c110,0 200,90 200,199 0,110 -90,199 -200,199 -110,0 -200,-89 -200,-199 0,-109 90,-199 200,-199z"/>
    </g>
    <g>
     <path class="fil3" d="M15032 8447l-619 0 0 395 619 0 0 -395zm-551 -423l484 0 0 423 -484 0 0 -423z"/>
     <path id="1" class="fil4" d="M14413 8419l619 0 0 57 -619 0 -29 -29 29 -28zm-29 28l0 -28 29 0 -29 28zm0 395l0 -395 58 0 0 395 -29 29 -29 -29zm29 29l-29 0 0 -29 29 29zm619 0l-619 0 0 -58 619 0 29 29 -29 29zm29 -29l0 29 -29 0 29 -29zm0 -395l0 395 -58 0 0 -395 29 -28 29 28zm-29 -28l29 0 0 28 -29 -28zm-67 -367l-484 0 0 -57 484 0 28 29 -28 28zm0 -57l28 0 0 29 -28 -29zm-29 452l0 -423 57 0 0 423 -28 29 -29 -29zm57 0l0 29 -28 0 28 -29zm-512 -28l484 0 0 57 -484 0 -29 -29 29 -28zm0 57l-29 0 0 -29 29 29zm28 -452l0 423 -57 0 0 -423 29 -29 28 29zm-57 0l0 -29 29 0 -29 29z"/>
    </g>
   </g>
   <g>
    <g>
     <path class="fil5" d="M12518 11839c56,-619 -601,-1399 -1514,-1565l-128 -181c-228,-914 -728,-1469 -1625,-1501 -140,0 -296,-82 -435,-103 -49,-90 -192,-239 -293,-239 -42,85 -34,69 -121,81 -5,33 -13,126 -118,126 19,193 139,238 248,359 37,127 73,255 110,382 236,811 826,1257 1697,1386l173 145c518,1001 -3602,2107 129,6474 180,-2288 974,-3777 1786,-4982l5582 5011 272 -271 -5763 -5122z"/>
     <path class="fil3" d="M10963 10325l-74 67c2337,1333 -512,2501 -251,6800 -62,-4645 3588,-5479 325,-6867z"/>
     <path class="fil3" d="M10841 10452l-33 35c1270,1082 -1196,3205 -167,6703 -711,-3437 2345,-5671 200,-6738z"/>
     <path class="fil3" d="M10769 10519l-73 73c1092,1200 -2186,2189 -57,6603 -1325,-3212 1328,-5663 130,-6676z"/>
     <path class="fil3" d="M10639 17195c-2455,-3869 982,-5433 10,-6577l-81 78c597,1311 -3405,1630 71,6499z"/>
     <path class="fil3" d="M9194 8652l-87 93c719,127 1250,649 1652,1441l81 -68c-306,-926 -822,-1473 -1646,-1466z"/>
     <path class="fil3" d="M8950 8886l98 -96c709,212 1254,705 1662,1433l-90 74 -1670 -1411z"/>
     <path class="fil3" d="M8828 9029l94 -103 1654 1418 -69 75c-707,-383 -1291,-824 -1679,-1390z"/>
     <path class="fil3" d="M10444 10465l-62 63c-800,-99 -1380,-537 -1695,-1384l79 -69c387,592 957,1048 1678,1390z"/>
    </g>
    <g>
     <path class="fil5" d="M16927 11839c-56,-619 601,-1399 1514,-1565l128 -181c228,-914 728,-1469 1625,-1501 140,0 296,-82 435,-103 49,-90 192,-239 293,-239 42,85 34,69 122,81 4,33 12,126 117,126 -19,193 -139,238 -248,359 -36,127 -73,255 -110,382 -236,811 -826,1257 -1697,1386l-173 145c-518,1001 3603,2107 -129,6474 -180,-2288 -974,-3777 -1786,-4982l-5582 5011 -272 -271 5763 -5122z"/>
     <path class="fil3" d="M18482 10325l74 67c-2337,1333 513,2501 251,6800 62,-4645 -3588,-5479 -325,-6867z"/>
     <path class="fil3" d="M18604 10452l33 35c-1270,1082 1196,3205 167,6703 711,-3437 -2345,-5671 -200,-6738z"/>
     <path class="fil3" d="M18676 10519l73 73c-1092,1200 2186,2189 57,6603 1325,-3212 -1328,-5663 -130,-6676z"/>
     <path class="fil3" d="M18806 17195c2455,-3869 -982,-5433 -9,-6577l80 78c-597,1311 3405,1630 -71,6499z"/>
     <path class="fil3" d="M20251 8652l87 93c-719,127 -1250,649 -1652,1441l-81 -68c306,-926 822,-1473 1646,-1466z"/>
     <path class="fil3" d="M20495 8886l-98 -96c-709,212 -1254,705 -1662,1433l90 74 1670 -1411z"/>
     <path class="fil3" d="M20617 9029l-94 -103 -1654 1418 69 75c707,-383 1291,-824 1679,-1390z"/>
     <path class="fil3" d="M19001 10465l63 63c799,-99 1379,-537 1694,-1384l-79 -69c-387,592 -957,1048 -1678,1390z"/>
    </g>
   </g>
  </g>
 </g>
</svg>
